<svg width="31" height="31" viewBox="0 0 31 31" fill="none" xmlns="http://www.w3.org/2000/svg">
<path d="M26.7 0.799988H4.3C2.368 0.799988 0.800003 2.36799 0.800003 4.29999V26.7C0.800003 28.632 2.368 30.2 4.3 30.2H26.7C28.632 30.2 30.2 28.632 30.2 26.7V4.29999C30.2 2.36799 28.632 0.799988 26.7 0.799988ZM23.9 11.3H22.5C21.002 11.3 20.4 11.65 20.4 12.7V14.8H23.9L23.2 18.3H20.4V28.8H16.9V18.3H14.1V14.8H16.9V12.7C16.9 9.89999 18.3 7.79999 21.1 7.79999C23.13 7.79999 23.9 8.49999 23.9 8.49999V11.3Z" fill="#787A8D"/>
</svg>
