<svg width="30" height="30" viewBox="0 0 30 30" fill="none" xmlns="http://www.w3.org/2000/svg">
<path d="M25 0H5C2.23875 0 0 2.23875 0 5V25C0 27.7612 2.23875 30 5 30H25C27.7612 30 30 27.7612 30 25V5C30 2.23875 27.7612 0 25 0ZM23.6406 11.3912C23.6481 11.5606 23.6519 11.7306 23.6519 11.9012C23.6519 17.1138 19.655 23.125 12.3431 23.125C10.0981 23.125 8.00937 22.4719 6.25 21.3531C6.56125 21.39 6.87812 21.4088 7.19875 21.4088C9.06187 21.4088 10.7756 20.7781 12.1356 19.72C10.3962 19.6881 8.92813 18.5469 8.4225 16.98C8.66438 17.025 8.91438 17.05 9.17 17.05C9.53313 17.05 9.88437 17.0019 10.2175 16.9119C8.39875 16.55 7.02875 14.9556 7.02875 13.0444C7.02875 13.0275 7.02875 13.0119 7.02875 12.995C7.56438 13.29 8.17812 13.4675 8.82875 13.4881C7.7625 12.7812 7.06125 11.5738 7.06125 10.2056C7.06125 9.48188 7.2575 8.80437 7.59875 8.22125C9.56 10.6081 12.4887 12.1794 15.7919 12.3431C15.725 12.0556 15.6888 11.7538 15.6888 11.4444C15.6888 9.26625 17.4681 7.5 19.6638 7.5C20.8069 7.5 21.8394 7.97937 22.5644 8.74625C23.4706 8.56875 24.3212 8.24063 25.0887 7.78875C24.7925 8.71 24.1625 9.48313 23.3413 9.97125C24.145 9.87563 24.9113 9.66437 25.6244 9.35C25.0925 10.14 24.4181 10.8344 23.6406 11.3912Z" fill="#787A8D"/>
</svg>
